<svg width="20" height="20" viewBox="0 0 20 20" fill="none" xmlns="http://www.w3.org/2000/svg">
<path fill-rule="evenodd" clip-rule="evenodd" d="M17.9882 9.99349C17.9882 12.1139 17.1459 14.1474 15.6466 15.6467C14.1473 17.146 12.1137 17.9883 9.99337 17.9883C7.87301 17.9883 5.83949 17.146 4.34017 15.6467C2.84085 14.1474 1.99854 12.1139 1.99854 9.99349C1.99854 7.87313 2.84085 5.83961 4.34017 4.34029C5.83949 2.84097 7.87301 1.99866 9.99337 1.99866C12.1137 1.99866 14.1473 2.84097 15.6466 4.34029C17.1459 5.83961 17.9882 7.87313 17.9882 9.99349ZM9.99337 4.99672C10.1922 4.99672 10.3828 5.07569 10.5234 5.21625C10.6639 5.35681 10.7429 5.54745 10.7429 5.74624V10.2433C10.7429 10.4421 10.6639 10.6328 10.5234 10.7733C10.3828 10.9139 10.1922 10.9928 9.99337 10.9928C9.79459 10.9928 9.60395 10.9139 9.46339 10.7733C9.32282 10.6328 9.24386 10.4421 9.24386 10.2433V5.74624C9.24386 5.54745 9.32282 5.35681 9.46339 5.21625C9.60395 5.07569 9.79459 4.99672 9.99337 4.99672ZM9.99337 14.9903C10.2584 14.9903 10.5126 14.885 10.7 14.6976C10.8874 14.5101 10.9927 14.256 10.9927 13.9909C10.9927 13.7259 10.8874 13.4717 10.7 13.2843C10.5126 13.0968 10.2584 12.9916 9.99337 12.9916C9.72833 12.9916 9.47414 13.0968 9.28672 13.2843C9.09931 13.4717 8.99402 13.7259 8.99402 13.9909C8.99402 14.256 9.09931 14.5101 9.28672 14.6976C9.47414 14.885 9.72833 14.9903 9.99337 14.9903Z" fill="#991B1B"/>
</svg>
