<svg width="221" height="221" viewBox="0 0 221 221" fill="none" xmlns="http://www.w3.org/2000/svg">
<path opacity="0.960784" d="M170.549 45.5547L169.042 46.2623C168.816 47.3496 169.027 48.8451 169.675 50.7489L171.106 51.3543L172.417 49.7652L171.628 46.2391L170.549 45.5547Z" fill="#DB2777" stroke="#DB2777"/>
<path opacity="0.960784" d="M171.306 53.9015L169.916 55.138L170.71 61.9954L172.141 62.6008L173.178 61.4432L172.816 54.8595L171.306 53.9015Z" fill="#DB2777" stroke="#DB2777"/>
<path opacity="0.960784" d="M171.636 65.3057L170.599 66.4634L170.608 73.1259C170.946 73.8649 171.658 74.0141 172.745 73.5736L173.35 72.1423L173.461 67.6743L173.067 65.9112L171.636 65.3057Z" fill="#DB2777" stroke="#DB2777"/>
<path opacity="0.960784" d="M171.965 76.71C170.855 76.7116 170.248 77.0325 170.144 77.6728L169.486 83.0038L169.88 84.7669C170.246 85.302 170.932 85.3336 171.938 84.8619L172.543 83.4306L173.007 78.8837L172.613 77.1206L171.965 76.71Z" fill="#DB2777" stroke="#DB2777"/>
<path opacity="0.960784" d="M170.021 87.8824C169.055 87.9752 168.592 88.3874 168.632 89.1189L167.268 94.6076L167.505 95.6655C167.78 96.3444 168.375 96.5199 169.289 96.192L170.091 95.6422L171.416 89.9772L170.982 88.0378L170.021 87.8824Z" fill="#DB2777" stroke="#DB2777"/>
<path opacity="0.960784" d="M167.294 98.8599L166.236 99.0965L165.004 101.038L163.325 105.117L163.68 106.703L165.345 106.701L166.148 106.151L168.451 99.8968L167.294 98.8599Z" fill="#DB2777" stroke="#DB2777"/>
<path opacity="0.960784" d="M98.6224 121.257L92.9806 122.519L91.9437 123.677L91.7488 124.461L92.9065 125.498L99.6061 123.999L100.017 123.352L100.133 122.215L99.5828 121.412L98.6224 121.257Z" fill="#DB2777" stroke="#DB2777"/>
<path opacity="0.960784" d="M105.833 120.385C104.145 120.343 103.185 120.742 102.954 121.584C102.955 122.694 103.276 123.301 103.916 123.405L110.853 122.964C111.532 122.689 111.707 122.094 111.379 121.18L109.516 120.301L105.833 120.385Z" fill="#DB2777" stroke="#DB2777"/>
<path opacity="0.960784" d="M87.8492 124.408L82.7967 126.649L81.4071 127.885C81.4087 128.996 81.7296 129.603 82.3699 129.706L84.4855 129.233L89.2829 126.679C89.2758 125.323 88.7979 124.566 87.8492 124.408Z" fill="#DB2777" stroke="#DB2777"/>
<path opacity="0.960784" d="M162.135 108.9L160.45 109.647L156.871 114.336C156.708 115.705 157.003 116.195 157.755 115.804L158.892 115.92L163.097 110.721L163.292 109.937L162.135 108.9Z" fill="#DB2777" stroke="#DB2777"/>
<path opacity="0.960784" d="M116.61 120.565C115.066 120.615 114.251 121.106 114.163 122.038C114.256 123.005 114.668 123.468 115.399 123.428L120.73 124.087L122.141 123.771C122.82 123.496 122.995 122.901 122.667 121.987L120.805 121.108L116.61 120.565Z" fill="#DB2777" stroke="#DB2777"/>
<path opacity="0.960784" d="M78.3333 129.869L76.9229 130.184L72.1279 134.404C72.1295 135.514 72.4504 136.122 73.0907 136.225L74.5011 135.91L78.6118 132.768L79.2961 131.69C79.2945 130.579 78.9736 129.972 78.3333 129.869Z" fill="#DB2777" stroke="#DB2777"/>
<path opacity="0.960784" d="M126.567 122.041L125.53 123.198C125.532 124.309 125.853 124.916 126.493 125.019L133.234 125.362C133.95 125.03 134.099 124.317 133.682 123.226L132.603 122.541L131.546 122.778L126.567 122.041Z" fill="#DB2777" stroke="#DB2777"/>
<path opacity="0.960784" d="M154.308 116.946L152.897 117.261L148.629 119.697L147.592 120.855C147.656 122.025 148.095 122.606 148.907 122.597C151.738 121.791 153.859 120.514 155.27 118.767L155.465 117.983L154.308 116.946Z" fill="#DB2777" stroke="#DB2777"/>
<path opacity="0.960784" d="M69.6435 137.367L68.5857 137.603L64.3799 142.802C64.4443 143.972 64.8827 144.553 65.6953 144.544L66.7531 144.308L70.9589 139.109C70.8763 137.967 70.4378 137.386 69.6435 137.367Z" fill="#DB2777" stroke="#DB2777"/>
<path opacity="0.960784" d="M138.834 122.258C137.489 122.312 136.791 122.777 136.74 123.653C136.804 124.823 137.242 125.404 138.055 125.395L144.481 124.327C145.196 123.995 145.346 123.282 144.929 122.191L143.85 121.507L139.266 122.532L138.834 122.258Z" fill="#DB2777" stroke="#DB2777"/>
<path opacity="0.960784" d="M62.7584 146.312L61.7005 146.549L59.1001 150.648C58.2572 151.404 58.1281 152.482 58.7127 153.882L60.3784 153.879L61.4153 152.722L64.0737 148.054L63.8371 146.996L62.7584 146.312Z" fill="#DB2777" stroke="#DB2777"/>
<path opacity="0.960784" d="M57.5994 156.352C56.489 156.354 55.8819 156.675 55.7783 157.315L53.904 162.177L53.8669 163.667C54.205 164.406 54.9172 164.555 56.0035 164.114L58.757 157.389L57.5994 156.352Z" fill="#DB2777" stroke="#DB2777"/>
<path opacity="0.960784" d="M47.7262 158.561C46.6158 158.563 46.0087 158.883 45.9051 159.524L46.4573 161.992L47.7147 164.303L50.7446 172.881L51.4127 174.213L52.4915 174.897L53.5493 174.66L63.7818 163.3C63.7803 162.19 63.4593 161.583 62.8191 161.479L61.4086 161.795L55.187 168.74C54.9868 167.625 54.4765 166.999 53.6559 166.861C52.6082 166.923 52.0731 167.289 52.0506 167.961L49.3571 161.714L48.8838 159.598L47.7262 158.561Z" fill="#DB2777" stroke="#DB2777"/>
</svg>
