<svg width="28" height="28" viewBox="0 0 28 28" fill="none" xmlns="http://www.w3.org/2000/svg">
<path d="M0 14C0 6.26801 6.26801 0 14 0C21.732 0 28 6.26801 28 14C28 21.732 21.732 28 14 28C6.26801 28 0 21.732 0 14Z" fill="#F6339A"/>
<g clip-path="url(#clip0_584_1905)">
<path d="M15.3208 8.66669C15.5613 8.66668 15.7973 8.73175 16.0039 8.85498C16.2105 8.97821 16.3798 9.15503 16.4941 9.36669L16.8181 9.96669C16.9323 10.1783 17.1017 10.3552 17.3083 10.4784C17.5148 10.6016 17.7509 10.6667 17.9914 10.6667H19.3228C19.6764 10.6667 20.0155 10.8072 20.2656 11.0572C20.5156 11.3073 20.6561 11.6464 20.6561 12V18C20.6561 18.3536 20.5156 18.6928 20.2656 18.9428C20.0155 19.1929 19.6764 19.3334 19.3228 19.3334H8.65609C8.30247 19.3334 7.96333 19.1929 7.71328 18.9428C7.46323 18.6928 7.32275 18.3536 7.32275 18V12C7.32275 11.6464 7.46323 11.3073 7.71328 11.0572C7.96333 10.8072 8.30247 10.6667 8.65609 10.6667H9.98742C10.2277 10.6667 10.4635 10.6018 10.6699 10.4788C10.8764 10.3558 11.0457 10.1793 11.1601 9.96802L11.4861 9.36535C11.6005 9.15404 11.7698 8.97756 11.9762 8.85458C12.1827 8.73159 12.4185 8.66667 12.6588 8.66669H15.3208Z" stroke="white" stroke-width="1.66559" stroke-linecap="round" stroke-linejoin="round"/>
<path d="M13.9893 16.6667C15.0938 16.6667 15.9893 15.7713 15.9893 14.6667C15.9893 13.5621 15.0938 12.6667 13.9893 12.6667C12.8847 12.6667 11.9893 13.5621 11.9893 14.6667C11.9893 15.7713 12.8847 16.6667 13.9893 16.6667Z" stroke="white" stroke-width="1.66559" stroke-linecap="round" stroke-linejoin="round"/>
</g>
<defs>
<clipPath id="clip0_584_1905">
<rect width="16" height="16" fill="white" transform="translate(5.98926 6)"/>
</clipPath>
</defs>
</svg>
