<svg width="160" height="160" viewBox="0 0 160 160" fill="none" xmlns="http://www.w3.org/2000/svg">
<path d="M0 79.9906C0 35.813 35.813 0 79.9906 0C124.168 0 159.981 35.813 159.981 79.9906C159.981 124.168 124.168 159.981 79.9906 159.981C35.813 159.981 0 124.168 0 79.9906Z" fill="#E5E7EB"/>
<path d="M83.9726 63.9967C84.694 63.9967 85.4018 64.1918 86.0213 64.5614C86.6407 64.9309 87.1487 65.4612 87.4913 66.0959L88.4629 67.8952C88.8056 68.53 89.3135 69.0602 89.9329 69.4298C90.5524 69.7993 91.2603 69.9944 91.9816 69.9944H95.9741C97.0345 69.9944 98.0516 70.4157 98.8014 71.1655C99.5513 71.9154 99.9725 72.9324 99.9725 73.9929V91.986C99.9725 93.0465 99.5513 94.0635 98.8014 94.8134C98.0516 95.5632 97.0345 95.9845 95.9741 95.9845H63.9863C62.9258 95.9845 61.9088 95.5632 61.1589 94.8134C60.4091 94.0635 59.9878 93.0465 59.9878 91.986V73.9929C59.9878 72.9324 60.4091 71.9154 61.1589 71.1655C61.9088 70.4157 62.9258 69.9944 63.9863 69.9944H67.9787C68.6993 69.9945 69.4065 69.7998 70.0255 69.431C70.6446 69.0622 71.1524 68.5329 71.4954 67.8992L72.473 66.0919C72.816 65.4582 73.3239 64.929 73.9429 64.5602C74.5619 64.1913 75.2691 63.9967 75.9897 63.9967H83.9726Z" stroke="#99A1AF" stroke-width="3.99847" stroke-linecap="round" stroke-linejoin="round"/>
<path d="M79.9801 87.9876C83.2926 87.9876 85.9778 85.3023 85.9778 81.9899C85.9778 78.6775 83.2926 75.9922 79.9801 75.9922C76.6677 75.9922 73.9824 78.6775 73.9824 81.9899C73.9824 85.3023 76.6677 87.9876 79.9801 87.9876Z" stroke="#99A1AF" stroke-width="3.99847" stroke-linecap="round" stroke-linejoin="round"/>
</svg>
