<svg width="24" height="24" viewBox="0 0 24 24" fill="none" xmlns="http://www.w3.org/2000/svg">
<path d="M14.9877 20.9827V12.9893C14.9877 12.7243 14.8825 12.4701 14.6951 12.2828C14.5077 12.0954 14.2536 11.9901 13.9886 11.9901H9.99185C9.72686 11.9901 9.47271 12.0954 9.28533 12.2828C9.09795 12.4701 8.99268 12.7243 8.99268 12.9893V20.9827" stroke="currentColor" stroke-width="1.99836" stroke-linecap="round" stroke-linejoin="round"/>
<path d="M2.99756 9.99183C2.99749 9.70114 3.06084 9.41393 3.18319 9.15024C3.30555 8.88655 3.48396 8.65273 3.70598 8.46509L10.7002 2.47002C11.0609 2.16518 11.5179 1.99792 11.9902 1.99792C12.4624 1.99792 12.9194 2.16518 13.2801 2.47002L20.2744 8.46509C20.4964 8.65273 20.6748 8.88655 20.7971 9.15024C20.9195 9.41393 20.9828 9.70114 20.9828 9.99183V18.9844C20.9828 19.5144 20.7722 20.0227 20.3975 20.3975C20.0227 20.7723 19.5144 20.9828 18.9844 20.9828H4.99592C4.46592 20.9828 3.95763 20.7723 3.58286 20.3975C3.2081 20.0227 2.99756 19.5144 2.99756 18.9844V9.99183Z" stroke="currentColor" stroke-width="1.99836" stroke-linecap="round" stroke-linejoin="round"/>
</svg>
