<svg width="16" height="16" viewBox="0 0 16 16" fill="none" xmlns="http://www.w3.org/2000/svg">
<g clip-path="url(#clip0_584_1605)">
<path d="M7.99707 11.329V14.6611" stroke="#0A0A0A" stroke-width="1.33282" stroke-linecap="round" stroke-linejoin="round"/>
<path d="M5.99768 7.1706C5.99755 7.41856 5.92825 7.66157 5.79757 7.8723C5.66689 8.08303 5.48002 8.25313 5.25796 8.36348L4.07175 8.96325C3.84969 9.07359 3.66282 9.24369 3.53214 9.45442C3.40146 9.66516 3.33216 9.90816 3.33203 10.1561V10.6626C3.33203 10.8393 3.40224 11.0088 3.52722 11.1338C3.6522 11.2588 3.8217 11.329 3.99844 11.329H11.9954C12.1721 11.329 12.3416 11.2588 12.4666 11.1338C12.5916 11.0088 12.6618 10.8393 12.6618 10.6626V10.1561C12.6617 9.90816 12.5924 9.66516 12.4617 9.45442C12.331 9.24369 12.1441 9.07359 11.9221 8.96325L10.7359 8.36348C10.5138 8.25313 10.3269 8.08303 10.1963 7.8723C10.0656 7.66157 9.99629 7.41856 9.99616 7.1706V4.66489C9.99616 4.48814 10.0664 4.31864 10.1913 4.19366C10.3163 4.06869 10.4858 3.99847 10.6626 3.99847C11.0161 3.99847 11.3551 3.85805 11.605 3.6081C11.855 3.35815 11.9954 3.01914 11.9954 2.66565C11.9954 2.31216 11.855 1.97315 11.605 1.7232C11.3551 1.47325 11.0161 1.33282 10.6626 1.33282H5.33127C4.97778 1.33282 4.63877 1.47325 4.38882 1.7232C4.13887 1.97315 3.99844 2.31216 3.99844 2.66565C3.99844 3.01914 4.13887 3.35815 4.38882 3.6081C4.63877 3.85805 4.97778 3.99847 5.33127 3.99847C5.50801 3.99847 5.67752 4.06869 5.80249 4.19366C5.92747 4.31864 5.99768 4.48814 5.99768 4.66489V7.1706Z" stroke="#0A0A0A" stroke-width="1.33282" stroke-linecap="round" stroke-linejoin="round"/>
</g>
<defs>
<clipPath id="clip0_584_1605">
<rect width="15.9939" height="15.9939" fill="white"/>
</clipPath>
</defs>
</svg>
