<svg width="16" height="16" viewBox="0 0 16 16" fill="none" xmlns="http://www.w3.org/2000/svg">
<g clip-path="url(#clip0_584_1538)">
<path d="M9.99625 9.32977C10.1295 8.66336 10.4627 8.19687 10.9959 7.66374C11.6623 7.06397 11.9955 6.19764 11.9955 5.3313C11.9955 4.27084 11.5742 3.25381 10.8244 2.50395C10.0745 1.75409 9.05747 1.33282 7.99701 1.33282C6.93655 1.33282 5.91952 1.75409 5.16966 2.50395C4.4198 3.25381 3.99854 4.27084 3.99854 5.3313C3.99854 5.99771 4.13182 6.79741 4.99815 7.66374C5.46464 8.13023 5.86449 8.66336 5.99777 9.32977" stroke="#C6005C" stroke-width="1.33282" stroke-linecap="round" stroke-linejoin="round"/>
<path d="M5.99756 11.9954H9.99603" stroke="#C6005C" stroke-width="1.33282" stroke-linecap="round" stroke-linejoin="round"/>
<path d="M6.66406 14.6611H9.32971" stroke="#C6005C" stroke-width="1.33282" stroke-linecap="round" stroke-linejoin="round"/>
</g>
<defs>
<clipPath id="clip0_584_1538">
<rect width="15.9939" height="15.9939" fill="white"/>
</clipPath>
</defs>
</svg>
