<svg width="16" height="16" viewBox="0 0 16 16" fill="none" xmlns="http://www.w3.org/2000/svg">
<g clip-path="url(#clip0_584_1533)">
<path d="M13.3281 6.66412C13.3281 9.99152 9.63687 13.4569 8.39734 14.5271C8.28187 14.614 8.1413 14.6609 7.99683 14.6609C7.85235 14.6609 7.71179 14.614 7.59631 14.5271C6.35679 13.4569 2.66553 9.99152 2.66553 6.66412C2.66553 5.25018 3.22722 3.89414 4.22703 2.89433C5.22684 1.89451 6.58288 1.33282 7.99683 1.33282C9.41078 1.33282 10.7668 1.89451 11.7666 2.89433C12.7664 3.89414 13.3281 5.25018 13.3281 6.66412Z" stroke="#C6005C" stroke-width="1.33282" stroke-linecap="round" stroke-linejoin="round"/>
<path d="M7.9968 8.66336C9.10094 8.66336 9.99603 7.76827 9.99603 6.66412C9.99603 5.55998 9.10094 4.66489 7.9968 4.66489C6.89265 4.66489 5.99756 5.55998 5.99756 6.66412C5.99756 7.76827 6.89265 8.66336 7.9968 8.66336Z" stroke="#C6005C" stroke-width="1.33282" stroke-linecap="round" stroke-linejoin="round"/>
</g>
<defs>
<clipPath id="clip0_584_1533">
<rect width="15.9939" height="15.9939" fill="white"/>
</clipPath>
</defs>
</svg>
