<svg width="24" height="24" viewBox="0 0 24 24" fill="none" xmlns="http://www.w3.org/2000/svg">
<path d="M12 12.9893C12.5523 12.9893 13 12.542 13 11.9901C13 11.4383 12.5523 10.991 12 10.991C11.4477 10.991 11 11.4383 11 11.9901C11 12.542 11.4477 12.9893 12 12.9893Z" stroke="#4A5565" stroke-width="1.99836" stroke-linecap="round" stroke-linejoin="round"/>
<path d="M12 5.99506C12.5523 5.99506 13 5.54771 13 4.99588C13 4.44405 12.5523 3.9967 12 3.9967C11.4477 3.9967 11 4.44405 11 4.99588C11 5.54771 11.4477 5.99506 12 5.99506Z" stroke="#4A5565" stroke-width="1.99836" stroke-linecap="round" stroke-linejoin="round"/>
<path d="M12 19.9836C12.5523 19.9836 13 19.5362 13 18.9844C13 18.4326 12.5523 17.9852 12 17.9852C11.4477 17.9852 11 18.4326 11 18.9844C11 19.5362 11.4477 19.9836 12 19.9836Z" stroke="#4A5565" stroke-width="1.99836" stroke-linecap="round" stroke-linejoin="round"/>
</svg>
