<svg width="20" height="20" viewBox="0 0 20 20" fill="none" xmlns="http://www.w3.org/2000/svg">
<g clip-path="url(#clip0_584_1600)">
<path d="M12.1055 18.06C12.1372 18.1389 12.1922 18.2061 12.2632 18.2528C12.3341 18.2995 12.4177 18.3234 12.5026 18.3212C12.5876 18.319 12.6698 18.2909 12.7383 18.2407C12.8068 18.1904 12.8583 18.1204 12.8859 18.04L18.299 2.2169C18.3257 2.14311 18.3308 2.06326 18.3137 1.98668C18.2966 1.9101 18.2581 1.83997 18.2026 1.7845C18.1471 1.72902 18.077 1.69049 18.0004 1.67341C17.9239 1.65634 17.844 1.66143 17.7702 1.68808L1.94709 7.10125C1.86673 7.12881 1.79671 7.1803 1.74645 7.2488C1.69619 7.3173 1.66808 7.39953 1.66591 7.48447C1.66373 7.5694 1.68759 7.65297 1.73428 7.72395C1.78097 7.79494 1.84826 7.84994 1.92711 7.88158L8.53118 10.5299C8.73995 10.6135 8.92963 10.7385 9.08879 10.8973C9.24795 11.0562 9.37328 11.2457 9.45724 11.4543L12.1055 18.06Z" stroke="white" stroke-width="1.66559" stroke-linecap="round" stroke-linejoin="round"/>
<path d="M18.1999 1.78799L9.08911 10.8979" stroke="white" stroke-width="1.66559" stroke-linecap="round" stroke-linejoin="round"/>
</g>
<defs>
<clipPath id="clip0_584_1600">
<rect width="19.9871" height="19.9871" fill="white"/>
</clipPath>
</defs>
</svg>
