<svg width="222" height="222" viewBox="0 0 222 222" fill="none" xmlns="http://www.w3.org/2000/svg">
<g clip-path="url(#clip0_735_1570)">
<path opacity="0.960784" d="M50.8935 45.5927L52.3987 46.3061C52.6203 47.3942 52.4034 48.8889 51.748 50.7902L50.3144 51.3901L49.0098 49.796L49.8122 46.2729L50.8935 45.5927Z" fill="#DB2777" stroke="#DB2777"/>
<path opacity="0.960784" d="M50.1051 53.9365L51.4899 55.1783L50.67 62.0326L49.2364 62.6326L48.2039 61.471L48.5912 54.8888L50.1051 53.9365Z" fill="#DB2777" stroke="#DB2777"/>
<path opacity="0.960784" d="M49.7315 65.3394L50.764 66.501L50.729 73.1635C50.3881 73.9011 49.6753 74.0476 48.5908 73.603L47.9908 72.1693L47.8967 67.7009L48.2979 65.9394L49.7315 65.3394Z" fill="#DB2777" stroke="#DB2777"/>
<path opacity="0.960784" d="M49.3581 76.7424C50.4685 76.7482 51.0743 77.0715 51.1755 77.7121L51.8137 83.0456L51.4125 84.8072C51.0439 85.3408 50.3579 85.3699 49.3545 84.8943L48.7545 83.4607L48.3081 78.912L48.7093 77.1505L49.3581 76.7424Z" fill="#DB2777" stroke="#DB2777"/>
<path opacity="0.960784" d="M51.259 87.9221C52.2252 88.0186 52.6868 88.4326 52.6438 89.1639L53.9867 94.6579L53.746 95.7148C53.468 96.3927 52.8727 96.5659 51.96 96.2345L51.1594 95.6816L49.8567 90.0115L50.298 88.0738L51.259 87.9221Z" fill="#DB2777" stroke="#DB2777"/>
<path opacity="0.960784" d="M53.9448 98.91L55.0017 99.1507L56.226 101.097L57.8898 105.182L57.5288 106.767L55.8632 106.758L55.0626 106.206L52.7832 99.9425L53.9448 98.91Z" fill="#DB2777" stroke="#DB2777"/>
<path opacity="0.960784" d="M122.529 121.571L128.166 122.854L129.199 124.016L129.391 124.801L128.229 125.833L121.535 124.309L121.127 123.66L121.015 122.523L121.568 121.722L122.529 121.571Z" fill="#DB2777" stroke="#DB2777"/>
<path opacity="0.960784" d="M115.323 120.671C117.011 120.635 117.969 121.038 118.197 121.881C118.191 122.991 117.868 123.597 117.227 123.698L110.293 123.231C109.615 122.953 109.442 122.358 109.773 121.445L111.639 120.573L115.323 120.671Z" fill="#DB2777" stroke="#DB2777"/>
<path opacity="0.960784" d="M133.291 124.762L138.334 127.023L139.719 128.265C139.713 129.375 139.39 129.981 138.749 130.082L136.636 129.601L131.848 127.028C131.86 125.672 132.341 124.917 133.291 124.762Z" fill="#DB2777" stroke="#DB2777"/>
<path opacity="0.960784" d="M59.0653 108.97L60.7466 109.724L64.3079 114.426C64.4654 115.796 64.1688 116.284 63.4184 115.891L62.2813 116.002L58.0955 110.787L57.9037 110.003L59.0653 108.97Z" fill="#DB2777" stroke="#DB2777"/>
<path opacity="0.960784" d="M104.544 120.81C106.088 120.865 106.902 121.359 106.986 122.292C106.889 123.259 106.476 123.72 105.744 123.677L100.411 124.315L99.0015 123.994C98.3236 123.717 98.1504 123.121 98.4818 122.208L100.348 121.336L104.544 120.81Z" fill="#DB2777" stroke="#DB2777"/>
<path opacity="0.960784" d="M142.785 130.26L144.195 130.581L148.973 134.819C148.967 135.93 148.644 136.535 148.004 136.637L146.594 136.316L142.496 133.159L141.816 132.077C141.821 130.967 142.145 130.361 142.785 130.26Z" fill="#DB2777" stroke="#DB2777"/>
<path opacity="0.960784" d="M94.5819 122.247L95.6144 123.408C95.6085 124.519 95.2853 125.125 94.6446 125.226L87.9019 125.543C87.1878 125.207 87.0413 124.495 87.4625 123.405L88.5438 122.725L89.6007 122.965L94.5819 122.247Z" fill="#DB2777" stroke="#DB2777"/>
<path opacity="0.960784" d="M66.8613 117.045L68.2705 117.366L72.5296 119.819L73.5621 120.98C73.4932 122.15 73.0525 122.729 72.24 122.717C69.412 121.9 67.2959 120.615 65.8915 118.863L65.6997 118.078L66.8613 117.045Z" fill="#DB2777" stroke="#DB2777"/>
<path opacity="0.960784" d="M151.446 137.791L152.503 138.032L156.689 143.247C156.62 144.417 156.179 144.996 155.367 144.984L154.31 144.743L150.124 139.528C150.211 138.387 150.652 137.808 151.446 137.791Z" fill="#DB2777" stroke="#DB2777"/>
<path opacity="0.960784" d="M82.3139 122.417C83.6592 122.477 84.3557 122.944 84.4033 123.82C84.3345 124.99 83.8938 125.569 83.0813 125.557L76.6595 124.465C75.9454 124.129 75.7989 123.417 76.22 122.327L77.3014 121.647L81.8814 122.69L82.3139 122.417Z" fill="#DB2777" stroke="#DB2777"/>
<path opacity="0.960784" d="M158.297 146.763L159.354 147.004L161.939 151.113C162.779 151.872 162.904 152.951 162.314 154.348L160.648 154.339L159.616 153.178L156.975 148.5L157.216 147.443L158.297 146.763Z" fill="#DB2777" stroke="#DB2777"/>
<path opacity="0.960784" d="M163.418 156.823C164.528 156.829 165.134 157.152 165.235 157.793L167.091 162.662L167.122 164.152C166.781 164.889 166.068 165.036 164.984 164.591L162.256 157.856L163.418 156.823Z" fill="#DB2777" stroke="#DB2777"/>
<path opacity="0.960784" d="M173.282 159.07C174.393 159.075 174.998 159.399 175.099 160.039L174.538 162.506L173.272 164.811L170.209 173.378L169.536 174.707L168.454 175.387L167.397 175.147L157.208 163.747C157.214 162.637 157.537 162.031 158.178 161.93L159.587 162.251L165.782 169.22C165.987 168.106 166.5 167.481 167.321 167.347C168.368 167.413 168.902 167.781 168.922 168.453L171.639 162.216L172.121 160.102L173.282 159.07Z" fill="#DB2777" stroke="#DB2777"/>
</g>
<defs>
<clipPath id="clip0_735_1570">
<rect width="185" height="185" fill="white" transform="translate(41.0803) rotate(12.8298)"/>
</clipPath>
</defs>
</svg>
